<svg width="136" height="40" fill="none" xmlns="http://www.w3.org/2000/svg"><path fill-rule="evenodd" clip-rule="evenodd" d="M0 11.413L12.887 0v28.587L0 40V11.413zm18.614 0L31.502 0v28.587L18.614 40V11.413z" fill="#F7B81D"/><path d="M48.768 26.204a5.67 5.67 0 01-.73-.05 8.16 8.16 0 01-.8-.154l.187-2.754c.159.034.312.051.46.051.464 0 .815-.181 1.053-.544.238-.374.403-.895.493-1.564.102-.669.165-1.45.187-2.346l.17-4.743h9.588V26h-3.315v-9.979l.731.748h-4.81l.68-.782-.086 2.72a30.443 30.443 0 01-.238 3.128c-.124.918-.323 1.706-.595 2.363-.272.646-.651 1.145-1.139 1.496-.476.34-1.088.51-1.836.51zm19.002.034c-.952 0-1.83-.153-2.635-.459a6.442 6.442 0 01-2.108-1.292 6.13 6.13 0 01-1.377-1.972c-.329-.748-.493-1.57-.493-2.465 0-.895.164-1.717.493-2.465a5.94 5.94 0 011.377-1.955 6.297 6.297 0 012.108-1.309c.804-.306 1.683-.459 2.635-.459.963 0 1.841.153 2.635.46a6.114 6.114 0 012.09 1.308 5.943 5.943 0 011.378 1.955c.34.748.51 1.57.51 2.465 0 .895-.17 1.723-.51 2.482a5.944 5.944 0 01-1.377 1.955 6.252 6.252 0 01-2.091 1.292c-.794.306-1.672.46-2.635.46zm0-2.788c.453 0 .872-.08 1.258-.238a2.881 2.881 0 001.02-.68c.294-.306.521-.669.68-1.088.17-.42.255-.884.255-1.394 0-.521-.085-.986-.255-1.394a2.987 2.987 0 00-.68-1.07 2.776 2.776 0 00-1.02-.698 3.272 3.272 0 00-1.258-.238 3.4 3.4 0 00-1.275.238 2.974 2.974 0 00-1.02.697c-.284.295-.51.652-.68 1.071a3.823 3.823 0 00-.238 1.394c0 .51.08.975.238 1.394.17.42.396.782.68 1.088.294.295.634.521 1.02.68a3.39 3.39 0 001.275.238zM76.183 26V14.1h8.72l-.017 2.67H78.75l.748-.749v9.98h-3.316zm15.045.238c-.952 0-1.83-.153-2.635-.459a6.442 6.442 0 01-2.108-1.292 6.13 6.13 0 01-1.377-1.972c-.329-.748-.493-1.57-.493-2.465 0-.895.164-1.717.493-2.465a5.94 5.94 0 011.377-1.955 6.297 6.297 0 012.108-1.309c.804-.306 1.683-.459 2.635-.459.963 0 1.841.153 2.635.46a6.114 6.114 0 012.09 1.308 5.943 5.943 0 011.378 1.955c.34.748.51 1.57.51 2.465 0 .895-.17 1.723-.51 2.482a5.944 5.944 0 01-1.377 1.955 6.252 6.252 0 01-2.091 1.292c-.794.306-1.672.46-2.635.46zm0-2.788c.453 0 .872-.08 1.258-.238a2.881 2.881 0 001.02-.68c.294-.306.521-.669.68-1.088.17-.42.255-.884.255-1.394 0-.521-.085-.986-.255-1.394a2.987 2.987 0 00-.68-1.07 2.776 2.776 0 00-1.02-.698 3.272 3.272 0 00-1.258-.238 3.4 3.4 0 00-1.275.238 2.974 2.974 0 00-1.02.697c-.284.295-.51.652-.68 1.071a3.823 3.823 0 00-.238 1.394c0 .51.08.975.238 1.394.17.42.396.782.68 1.088.294.295.634.521 1.02.68a3.39 3.39 0 001.275.238zM102.11 26v-9.979l.748.748h-4.404V14.1h10.609v2.67h-4.386l.747-.749v9.98h-3.314zm8.504 0V14.1h3.315v6.987l4.913-6.987h3.162V26h-3.315v-6.97L113.793 26h-3.179zm13.945 0V14.1h11.169V26h-3.332v-9.979l.748.748h-6.001l.731-.748v9.98h-3.315z" fill="#000"/></svg>