<svg width="136" height="40" viewBox="0 0 136 40" fill="none" xmlns="http://www.w3.org/2000/svg">
<path fill-rule="evenodd" clip-rule="evenodd" d="M0 11.413L12.887 0V28.587L0 40V11.413ZM18.614 11.413L31.502 0V28.587L18.614 40V11.413Z" fill="#F7B81D"/>
<path d="M48.7683 26.2041C48.5416 26.2041 48.2979 26.1871 48.0373 26.1531C47.7879 26.1191 47.5216 26.0681 47.2383 26.0001L47.4253 23.2461C47.5839 23.2801 47.7369 23.2971 47.8843 23.2971C48.3489 23.2971 48.7003 23.1157 48.9383 22.7531C49.1763 22.3791 49.3406 21.8577 49.4313 21.1891C49.5333 20.5204 49.5956 19.7384 49.6183 18.8431L49.7883 14.1001H59.3763V26.0001H56.0613V16.0211L56.7923 16.7691H51.9813L52.6613 15.9871L52.5763 18.7071C52.5423 19.8631 52.4629 20.9057 52.3383 21.8351C52.2136 22.7531 52.0153 23.5407 51.7433 24.1981C51.4713 24.8441 51.0916 25.3427 50.6043 25.6941C50.1283 26.0341 49.5163 26.2041 48.7683 26.2041Z" fill="black"/>
<path d="M67.7698 26.2381C66.8178 26.2381 65.9394 26.0851 65.1348 25.7791C64.3301 25.4731 63.6274 25.0424 63.0268 24.4871C62.4374 23.9204 61.9784 23.2631 61.6498 22.5151C61.3211 21.7671 61.1568 20.9454 61.1568 20.0501C61.1568 19.1547 61.3211 18.3331 61.6498 17.5851C61.9784 16.8371 62.4374 16.1854 63.0268 15.6301C63.6274 15.0634 64.3301 14.6271 65.1348 14.3211C65.9394 14.0151 66.8178 13.8621 67.7698 13.8621C68.7331 13.8621 69.6114 14.0151 70.4048 14.3211C71.2094 14.6271 71.9064 15.0634 72.4958 15.6301C73.0851 16.1854 73.5441 16.8371 73.8728 17.5851C74.2128 18.3331 74.3828 19.1547 74.3828 20.0501C74.3828 20.9454 74.2128 21.7727 73.8728 22.5321C73.5441 23.2801 73.0851 23.9317 72.4958 24.4871C71.9064 25.0424 71.2094 25.4731 70.4048 25.7791C69.6114 26.0851 68.7331 26.2381 67.7698 26.2381ZM67.7698 23.4501C68.2231 23.4501 68.6424 23.3707 69.0278 23.2121C69.4244 23.0534 69.7644 22.8267 70.0478 22.5321C70.3424 22.2261 70.5691 21.8634 70.7278 21.4441C70.8978 21.0247 70.9828 20.5601 70.9828 20.0501C70.9828 19.5287 70.8978 19.0641 70.7278 18.6561C70.5691 18.2367 70.3424 17.8797 70.0478 17.5851C69.7644 17.2791 69.4244 17.0467 69.0278 16.8881C68.6424 16.7294 68.2231 16.6501 67.7698 16.6501C67.3164 16.6501 66.8914 16.7294 66.4948 16.8881C66.1094 17.0467 65.7694 17.2791 65.4748 17.5851C65.1914 17.8797 64.9648 18.2367 64.7948 18.6561C64.6361 19.0641 64.5568 19.5287 64.5568 20.0501C64.5568 20.5601 64.6361 21.0247 64.7948 21.4441C64.9648 21.8634 65.1914 22.2261 65.4748 22.5321C65.7694 22.8267 66.1094 23.0534 66.4948 23.2121C66.8914 23.3707 67.3164 23.4501 67.7698 23.4501Z" fill="black"/>
<path d="M76.1825 26.0001V14.1001H84.9035L84.8865 16.7691H78.7495L79.4975 16.0211V26.0001H76.1825Z" fill="black"/>
<path d="M91.2278 26.2381C90.2758 26.2381 89.3974 26.0851 88.5928 25.7791C87.7881 25.4731 87.0854 25.0424 86.4848 24.4871C85.8954 23.9204 85.4364 23.2631 85.1078 22.5151C84.7791 21.7671 84.6148 20.9454 84.6148 20.0501C84.6148 19.1547 84.7791 18.3331 85.1078 17.5851C85.4364 16.8371 85.8954 16.1854 86.4848 15.6301C87.0854 15.0634 87.7881 14.6271 88.5928 14.3211C89.3974 14.0151 90.2758 13.8621 91.2278 13.8621C92.1911 13.8621 93.0694 14.0151 93.8628 14.3211C94.6674 14.6271 95.3644 15.0634 95.9538 15.6301C96.5431 16.1854 97.0021 16.8371 97.3308 17.5851C97.6708 18.3331 97.8408 19.1547 97.8408 20.0501C97.8408 20.9454 97.6708 21.7727 97.3308 22.5321C97.0021 23.2801 96.5431 23.9317 95.9538 24.4871C95.3644 25.0424 94.6674 25.4731 93.8628 25.7791C93.0694 26.0851 92.1911 26.2381 91.2278 26.2381ZM91.2278 23.4501C91.6811 23.4501 92.1004 23.3707 92.4858 23.2121C92.8824 23.0534 93.2224 22.8267 93.5058 22.5321C93.8004 22.2261 94.0271 21.8634 94.1858 21.4441C94.3558 21.0247 94.4408 20.5601 94.4408 20.0501C94.4408 19.5287 94.3558 19.0641 94.1858 18.6561C94.0271 18.2367 93.8004 17.8797 93.5058 17.5851C93.2224 17.2791 92.8824 17.0467 92.4858 16.8881C92.1004 16.7294 91.6811 16.6501 91.2278 16.6501C90.7744 16.6501 90.3494 16.7294 89.9528 16.8881C89.5674 17.0467 89.2274 17.2791 88.9328 17.5851C88.6494 17.8797 88.4228 18.2367 88.2528 18.6561C88.0941 19.0641 88.0148 19.5287 88.0148 20.0501C88.0148 20.5601 88.0941 21.0247 88.2528 21.4441C88.4228 21.8634 88.6494 22.2261 88.9328 22.5321C89.2274 22.8267 89.5674 23.0534 89.9528 23.2121C90.3494 23.3707 90.7744 23.4501 91.2278 23.4501Z" fill="black"/>
<path d="M102.11 26.0001V16.0211L102.858 16.7691H98.4545V14.1001H109.063V16.7691H104.677L105.424 16.0211V26.0001H102.11Z" fill="black"/>
<path d="M110.614 26.0001V14.1001H113.929V21.0871L118.842 14.1001H122.004V26.0001H118.689V19.0301L113.793 26.0001H110.614Z" fill="black"/>
<path d="M124.559 26.0001V14.1001H135.728V26.0001H132.396V16.0211L133.144 16.7691H127.143L127.874 16.0211V26.0001H124.559Z" fill="black"/>
</svg>
